<svg xmlns="http://www.w3.org/2000/svg" viewBox="0 0 557.01 106.69"><defs><style>.cls-1{font-size:84px;}.cls-1,.cls-10,.cls-11,.cls-2,.cls-3,.cls-4,.cls-5,.cls-6,.cls-7,.cls-8,.cls-9{fill:#b87758;font-family:BunglerLight-Regular, Bungler Light;}.cls-2{font-size:84px;}.cls-3{font-size:84px;}.cls-4{font-size:84px;}.cls-5{font-size:84px;}.cls-6{font-size:84px;}.cls-7{font-size:84px;}.cls-8{font-size:84px;}.cls-9{font-size:84px;}.cls-10{font-size:84px;}.cls-11{font-size:84px;}.cls-12{fill:none;}</style></defs><g id="Layer_2" data-name="Layer 2"><g id="Layer_1-2" data-name="Layer 1"><text class="cls-1" transform="translate(42.28 87.45) rotate(-4.54)">R</text><text class="cls-2" transform="matrix(1, -0.08, 0.08, 1, 68.99, 85.33)">E</text><text class="cls-2" transform="translate(91.98 83.55) rotate(-4.34)">S</text><text class="cls-3" transform="translate(118.2 81.56) rotate(-4.21)">T</text><text class="cls-4" transform="matrix(1, -0.07, 0.07, 1, 141.84, 79.81)">A</text><text class="cls-5" transform="translate(168.52 77.92) rotate(-3.87)">U</text><text class="cls-1" transform="translate(196.4 76.03) rotate(-3.6)">R</text><text class="cls-6" transform="matrix(1, -0.06, 0.06, 1, 223.14, 74.34)">A</text><text class="cls-7" transform="translate(249.94 72.81) rotate(-2.39)">N</text><text class="cls-8" transform="translate(277.19 71.62) rotate(-0.52)">T</text><text class="cls-9" transform="translate(301.47 71.49) rotate(0.7)"> </text><text class="cls-9" transform="translate(312.72 71.54) rotate(1.69)">M</text><text class="cls-7" transform="translate(349.97 72.7) rotate(2.49)">E</text><text class="cls-10" transform="translate(373 73.71) rotate(3.02)">L</text><text class="cls-11" transform="translate(395.09 74.85) rotate(3.53)">U</text><text class="cls-1" transform="translate(422.81 76.56) rotate(4.11)">S</text><text class="cls-7" transform="translate(449.5 78.51) rotate(4.65)">I</text><text class="cls-1" transform="matrix(1, 0.09, -0.09, 1, 464.2, 79.67)">N</text><text class="cls-3" transform="translate(490.97 82.14) rotate(6.56)">E</text><rect class="cls-12" y="54.29" width="557.01" height="52.4"/></g></g></svg>